<?xml version="1.0" encoding="UTF-8"?>
<svg width="32px" height="32px" viewBox="0 0 32 32" version="1.1" xmlns="http://www.w3.org/2000/svg" xmlns:xlink="http://www.w3.org/1999/xlink">
    <!-- Generator: Sketch 54.1 (76490) - https://sketchapp.com -->
    <title>safari-pinned-tab</title>
    <desc>Created with Sketch.</desc>
    <g id="safari-pinned-tab" stroke="none" stroke-width="1" fill="none" fill-rule="evenodd" stroke-linejoin="round">
        <g id="app-icon" transform="translate(6.000000, 3.000000)" stroke="#000000" stroke-width="0.869565217">
            <polygon id="Stroke-1979" points="20 25.5714286 0 25.5714286 4.34782609 22.1034483 15.2173913 22.1034483"></polygon>
            <path d="M15.6521739,22.1034483 L3.91304348,22.1034483 C3.1926087,22.1034483 2.60869565,21.5212611 2.60869565,20.8029557 L2.60869565,16.9014778 L16.9565217,16.9014778 L16.9565217,20.8029557 C16.9565217,21.5212611 16.3726087,22.1034483 15.6521739,22.1034483 L15.6521739,22.1034483 Z" id="Stroke-1980"></path>
            <path d="M16.9565217,9.96551724 L2.60869565,9.96551724 L2.60869565,6.06403941 C2.60869565,5.34573399 3.1926087,4.7635468 3.91304348,4.7635468 L15.6521739,4.7635468 C16.3726087,4.7635468 16.9565217,5.34573399 16.9565217,6.06403941 L16.9565217,9.96551724 L16.9565217,9.96551724 Z" id="Stroke-1981"></path>
            <polygon id="Stroke-1983" points="2.60869565 16.9014778 16.9565217 16.9014778 16.9565217 9.96551724 2.60869565 9.96551724"></polygon>
            <polygon id="Stroke-1984" points="13.0434783 4.7635468 6.52173913 4.7635468 7.39130435 2.16256158 12.173913 2.16256158"></polygon>
            <path d="M10,0.428571429 L8.26086957,2.16256158" id="Stroke-1985" stroke-linecap="round"></path>
            <path d="M12.6086957,0.428571429 L10.8695652,2.16256158" id="Stroke-1986" stroke-linecap="round"></path>
            <path d="M6.08695652,19.5024631 C6.08695652,19.9814778 5.69782609,20.3694581 5.2173913,20.3694581 C4.73695652,20.3694581 4.34782609,19.9814778 4.34782609,19.5024631 C4.34782609,19.0234483 4.73695652,18.635468 5.2173913,18.635468 C5.69782609,18.635468 6.08695652,19.0234483 6.08695652,19.5024631 L6.08695652,19.5024631 Z" id="Stroke-1990"></path>
            <path d="M15.2173913,19.5024631 C15.2173913,19.9814778 14.8282609,20.3694581 14.3478261,20.3694581 C13.8673913,20.3694581 13.4782609,19.9814778 13.4782609,19.5024631 C13.4782609,19.0234483 13.8673913,18.635468 14.3478261,18.635468 C14.8282609,18.635468 15.2173913,19.0234483 15.2173913,19.5024631 L15.2173913,19.5024631 Z" id="Stroke-1991"></path>
            <path d="M6.08695652,22.1034483 L6.08695652,25.5714286" id="Stroke-1994"></path>
            <path d="M13.4782609,22.1034483 L13.4782609,25.5714286" id="Stroke-1995"></path>
            <path d="M2.17391304,23.8374384 L17.3913043,23.8374384" id="Stroke-1996"></path>
            <polygon id="Stroke-2004" points="6.52173913 8.23152709 13.0434783 8.23152709 13.0434783 6.49753695 6.52173913 6.49753695"></polygon>
        </g>
    </g>
</svg>