<?xml version="1.0" encoding="UTF-8"?>
<svg width="32px" height="32px" viewBox="0 0 32 32" version="1.1" xmlns="http://www.w3.org/2000/svg" xmlns:xlink="http://www.w3.org/1999/xlink">
    <!-- Generator: Sketch 54.1 (76490) - https://sketchapp.com -->
    <title>safari-pinned-tab</title>
    <desc>Created with Sketch.</desc>
    <g id="safari-pinned-tab" stroke="none" stroke-width="1" fill="none" fill-rule="evenodd">
        <g id="app-icon">
            <polygon id="Fill-1876" fill="#63D3FD" fill-rule="nonzero" points="9.91304348 19.9014778 21.6521739 19.9014778 21.6521739 12.9655172 9.91304348 12.9655172"></polygon>
            <polygon id="Fill-1877" fill="#FFFFFF" fill-rule="nonzero" points="8.60869565 19.9014778 9.91304348 19.9014778 9.91304348 12.9655172 8.60869565 12.9655172"></polygon>
            <polygon id="Fill-1878" fill="#3DB9F9" fill-rule="nonzero" points="21.6521739 19.9014778 22.9565217 19.9014778 22.9565217 12.9655172 21.6521739 12.9655172"></polygon>
            <polygon id="Fill-1879" fill="#FFE100" fill-rule="nonzero" points="26 28.5714286 6 28.5714286 10.3478261 25.1034483 21.2173913 25.1034483"></polygon>
            <path d="M21.6521739,12.9655172 L9.91304348,12.9655172 L9.91304348,9.06403941 C9.91304348,8.34573399 10.4969565,7.7635468 11.2173913,7.7635468 L20.3478261,7.7635468 C21.0682609,7.7635468 21.6521739,8.34573399 21.6521739,9.06403941 L21.6521739,12.9655172 Z" id="Fill-1880" fill="#FFE100" fill-rule="nonzero"></path>
            <path d="M11.2173913,7.7635468 L9.91304348,7.7635468 C9.1926087,7.7635468 8.60869565,8.34573399 8.60869565,9.06403941 L8.60869565,12.9655172 L9.91304348,12.9655172 L9.91304348,9.06403941 C9.91304348,8.34573399 10.4969565,7.7635468 11.2173913,7.7635468" id="Fill-1881" fill="#FFFFFF" fill-rule="nonzero"></path>
            <path d="M21.6521739,7.7635468 L20.3478261,7.7635468 C21.0682609,7.7635468 21.6521739,8.34573399 21.6521739,9.06403941 L21.6521739,12.9655172 L22.9565217,12.9655172 L22.9565217,9.06403941 C22.9565217,8.34573399 22.3726087,7.7635468 21.6521739,7.7635468" id="Fill-1882" fill="#FFA800" fill-rule="nonzero"></path>
            <path d="M9.91304348,19.9014778 L21.6521739,19.9014778 L21.6521739,23.8029557 C21.6521739,24.5212611 21.0682609,25.1034483 20.3478261,25.1034483 L11.2173913,25.1034483 C10.4969565,25.1034483 9.91304348,24.5212611 9.91304348,23.8029557 L9.91304348,19.9014778 Z" id="Fill-1883" fill="#FFE100" fill-rule="nonzero"></path>
            <path d="M20.3478261,25.1034483 L21.6521739,25.1034483 C22.3726087,25.1034483 22.9565217,24.5212611 22.9565217,23.8029557 L22.9565217,19.9014778 L21.6521739,19.9014778 L21.6521739,23.8029557 C21.6521739,24.5212611 21.0682609,25.1034483 20.3478261,25.1034483" id="Fill-1884" fill="#FFA800" fill-rule="nonzero"></path>
            <path d="M9.91304348,25.1034483 L11.2173913,25.1034483 C10.4969565,25.1034483 9.91304348,24.5212611 9.91304348,23.8029557 L9.91304348,19.9014778 L8.60869565,19.9014778 L8.60869565,23.8029557 C8.60869565,24.5212611 9.1926087,25.1034483 9.91304348,25.1034483" id="Fill-1885" fill="#FFFFFF" fill-rule="nonzero"></path>
            <polygon id="Fill-1886" fill="#FFE100" fill-rule="nonzero" points="19.0434783 7.7635468 12.5217391 7.7635468 13.3913043 5.16256158 18.173913 5.16256158"></polygon>
            <path d="M16.4347826,3.42857143 L14.6956522,5.16256158" id="Stroke-1887" stroke="#FFE100" stroke-width="0.869565217" stroke-linecap="round" stroke-linejoin="round"></path>
            <path d="M19.0434783,3.42857143 L17.3043478,5.16256158" id="Stroke-1888" stroke="#FFE100" stroke-width="0.869565217" stroke-linecap="round" stroke-linejoin="round"></path>
            <path d="M12.0869565,22.5024631 C12.0869565,22.9814778 11.6978261,23.3694581 11.2173913,23.3694581 C10.7369565,23.3694581 10.3478261,22.9814778 10.3478261,22.5024631 C10.3478261,22.0234483 10.7369565,21.635468 11.2173913,21.635468 C11.6978261,21.635468 12.0869565,22.0234483 12.0869565,22.5024631" id="Fill-1889" fill="#63D3FD" fill-rule="nonzero"></path>
            <path d="M21.2173913,22.5024631 C21.2173913,22.9814778 20.8282609,23.3694581 20.3478261,23.3694581 C19.8673913,23.3694581 19.4782609,22.9814778 19.4782609,22.5024631 C19.4782609,22.0234483 19.8673913,21.635468 20.3478261,21.635468 C20.8282609,21.635468 21.2173913,22.0234483 21.2173913,22.5024631" id="Fill-1890" fill="#63D3FD" fill-rule="nonzero"></path>
            <polygon id="Fill-1891" fill="#63D3FD" fill-rule="nonzero" points="12.5217391 11.2315271 19.0434783 11.2315271 19.0434783 9.49753695 12.5217391 9.49753695"></polygon>
            <polygon id="Stroke-1979" stroke="#000000" stroke-width="0.869565217" stroke-linejoin="round" points="26 28.5714286 6 28.5714286 10.3478261 25.1034483 21.2173913 25.1034483"></polygon>
            <path d="M21.6521739,25.1034483 L9.91304348,25.1034483 C9.1926087,25.1034483 8.60869565,24.5212611 8.60869565,23.8029557 L8.60869565,19.9014778 L22.9565217,19.9014778 L22.9565217,23.8029557 C22.9565217,24.5212611 22.3726087,25.1034483 21.6521739,25.1034483 L21.6521739,25.1034483 Z" id="Stroke-1980" stroke="#000000" stroke-width="0.869565217" stroke-linejoin="round"></path>
            <path d="M22.9565217,12.9655172 L8.60869565,12.9655172 L8.60869565,9.06403941 C8.60869565,8.34573399 9.1926087,7.7635468 9.91304348,7.7635468 L21.6521739,7.7635468 C22.3726087,7.7635468 22.9565217,8.34573399 22.9565217,9.06403941 L22.9565217,12.9655172 L22.9565217,12.9655172 Z" id="Stroke-1981" stroke="#000000" stroke-width="0.869565217" stroke-linejoin="round"></path>
            <polygon id="Stroke-1983" stroke="#000000" stroke-width="0.869565217" stroke-linejoin="round" points="8.60869565 19.9014778 22.9565217 19.9014778 22.9565217 12.9655172 8.60869565 12.9655172"></polygon>
            <polygon id="Stroke-1984" stroke="#000000" stroke-width="0.869565217" stroke-linejoin="round" points="19.0434783 7.7635468 12.5217391 7.7635468 13.3913043 5.16256158 18.173913 5.16256158"></polygon>
            <path d="M16,3.42857143 L14.2608696,5.16256158" id="Stroke-1985" stroke="#000000" stroke-width="0.869565217" stroke-linecap="round" stroke-linejoin="round"></path>
            <path d="M18.6086957,3.42857143 L16.8695652,5.16256158" id="Stroke-1986" stroke="#000000" stroke-width="0.869565217" stroke-linecap="round" stroke-linejoin="round"></path>
            <path d="M12.0869565,22.5024631 C12.0869565,22.9814778 11.6978261,23.3694581 11.2173913,23.3694581 C10.7369565,23.3694581 10.3478261,22.9814778 10.3478261,22.5024631 C10.3478261,22.0234483 10.7369565,21.635468 11.2173913,21.635468 C11.6978261,21.635468 12.0869565,22.0234483 12.0869565,22.5024631 L12.0869565,22.5024631 Z" id="Stroke-1990" stroke="#000000" stroke-width="0.869565217" stroke-linejoin="round"></path>
            <path d="M21.2173913,22.5024631 C21.2173913,22.9814778 20.8282609,23.3694581 20.3478261,23.3694581 C19.8673913,23.3694581 19.4782609,22.9814778 19.4782609,22.5024631 C19.4782609,22.0234483 19.8673913,21.635468 20.3478261,21.635468 C20.8282609,21.635468 21.2173913,22.0234483 21.2173913,22.5024631 L21.2173913,22.5024631 Z" id="Stroke-1991" stroke="#000000" stroke-width="0.869565217" stroke-linejoin="round"></path>
            <path d="M12.0869565,25.1034483 L12.0869565,28.5714286" id="Stroke-1994" stroke="#000000" stroke-width="0.869565217" stroke-linejoin="round"></path>
            <path d="M19.4782609,25.1034483 L19.4782609,28.5714286" id="Stroke-1995" stroke="#000000" stroke-width="0.869565217" stroke-linejoin="round"></path>
            <path d="M8.17391304,26.8374384 L23.3913043,26.8374384" id="Stroke-1996" stroke="#000000" stroke-width="0.869565217" stroke-linejoin="round"></path>
            <polygon id="Stroke-2004" stroke="#000000" stroke-width="0.869565217" stroke-linejoin="round" points="12.5217391 11.2315271 19.0434783 11.2315271 19.0434783 9.49753695 12.5217391 9.49753695"></polygon>
        </g>
    </g>
</svg>