<?xml version="1.0" encoding="UTF-8"?>
<svg width="112px" height="112px" viewBox="0 0 112 112" version="1.1" xmlns="http://www.w3.org/2000/svg" xmlns:xlink="http://www.w3.org/1999/xlink">
    <!-- Generator: Sketch 54.1 (76490) - https://sketchapp.com -->
    <title>app-icon</title>
    <desc>Created with Sketch.</desc>
    <g id="app-icon" stroke="none" stroke-width="1" fill="none" fill-rule="evenodd">
        <polygon id="Fill-1876" fill="#63D3FD" fill-rule="nonzero" points="34.6956522 69.6551724 75.7826087 69.6551724 75.7826087 45.3793103 34.6956522 45.3793103"></polygon>
        <polygon id="Fill-1877" fill="#FFFFFF" fill-rule="nonzero" points="30.1304348 69.6551724 34.6956522 69.6551724 34.6956522 45.3793103 30.1304348 45.3793103"></polygon>
        <polygon id="Fill-1878" fill="#3DB9F9" fill-rule="nonzero" points="75.7826087 69.6551724 80.3478261 69.6551724 80.3478261 45.3793103 75.7826087 45.3793103"></polygon>
        <polygon id="Fill-1879" fill="#FFE100" fill-rule="nonzero" points="91 100 21 100 36.2173913 87.862069 74.2608696 87.862069"></polygon>
        <path d="M75.7826087,45.3793103 L34.6956522,45.3793103 L34.6956522,31.7241379 C34.6956522,29.210069 36.7393478,27.1724138 39.2608696,27.1724138 L71.2173913,27.1724138 C73.738913,27.1724138 75.7826087,29.210069 75.7826087,31.7241379 L75.7826087,45.3793103 Z" id="Fill-1880" fill="#FFE100" fill-rule="nonzero"></path>
        <path d="M39.2608696,27.1724138 L34.6956522,27.1724138 C32.1741304,27.1724138 30.1304348,29.210069 30.1304348,31.7241379 L30.1304348,45.3793103 L34.6956522,45.3793103 L34.6956522,31.7241379 C34.6956522,29.210069 36.7393478,27.1724138 39.2608696,27.1724138" id="Fill-1881" fill="#FFFFFF" fill-rule="nonzero"></path>
        <path d="M75.7826087,27.1724138 L71.2173913,27.1724138 C73.738913,27.1724138 75.7826087,29.210069 75.7826087,31.7241379 L75.7826087,45.3793103 L80.3478261,45.3793103 L80.3478261,31.7241379 C80.3478261,29.210069 78.3041304,27.1724138 75.7826087,27.1724138" id="Fill-1882" fill="#FFA800" fill-rule="nonzero"></path>
        <path d="M34.6956522,69.6551724 L75.7826087,69.6551724 L75.7826087,83.3103448 C75.7826087,85.8244138 73.738913,87.862069 71.2173913,87.862069 L39.2608696,87.862069 C36.7393478,87.862069 34.6956522,85.8244138 34.6956522,83.3103448 L34.6956522,69.6551724 Z" id="Fill-1883" fill="#FFE100" fill-rule="nonzero"></path>
        <path d="M71.2173913,87.862069 L75.7826087,87.862069 C78.3041304,87.862069 80.3478261,85.8244138 80.3478261,83.3103448 L80.3478261,69.6551724 L75.7826087,69.6551724 L75.7826087,83.3103448 C75.7826087,85.8244138 73.738913,87.862069 71.2173913,87.862069" id="Fill-1884" fill="#FFA800" fill-rule="nonzero"></path>
        <path d="M34.6956522,87.862069 L39.2608696,87.862069 C36.7393478,87.862069 34.6956522,85.8244138 34.6956522,83.3103448 L34.6956522,69.6551724 L30.1304348,69.6551724 L30.1304348,83.3103448 C30.1304348,85.8244138 32.1741304,87.862069 34.6956522,87.862069" id="Fill-1885" fill="#FFFFFF" fill-rule="nonzero"></path>
        <polygon id="Fill-1886" fill="#FFE100" fill-rule="nonzero" points="66.6521739 27.1724138 43.826087 27.1724138 46.8695652 18.0689655 63.6086957 18.0689655"></polygon>
        <path d="M57.5217391,12 L51.4347826,18.0689655" id="Stroke-1887" stroke="#FFE100" stroke-width="3.04347826" stroke-linecap="round" stroke-linejoin="round"></path>
        <path d="M66.6521739,12 L60.5652174,18.0689655" id="Stroke-1888" stroke="#FFE100" stroke-width="3.04347826" stroke-linecap="round" stroke-linejoin="round"></path>
        <path d="M42.3043478,78.7586207 C42.3043478,80.4351724 40.9423913,81.7931034 39.2608696,81.7931034 C37.5793478,81.7931034 36.2173913,80.4351724 36.2173913,78.7586207 C36.2173913,77.082069 37.5793478,75.7241379 39.2608696,75.7241379 C40.9423913,75.7241379 42.3043478,77.082069 42.3043478,78.7586207" id="Fill-1889" fill="#63D3FD" fill-rule="nonzero"></path>
        <path d="M74.2608696,78.7586207 C74.2608696,80.4351724 72.898913,81.7931034 71.2173913,81.7931034 C69.5358696,81.7931034 68.173913,80.4351724 68.173913,78.7586207 C68.173913,77.082069 69.5358696,75.7241379 71.2173913,75.7241379 C72.898913,75.7241379 74.2608696,77.082069 74.2608696,78.7586207" id="Fill-1890" fill="#63D3FD" fill-rule="nonzero"></path>
        <polygon id="Fill-1891" fill="#63D3FD" fill-rule="nonzero" points="43.826087 39.3103448 66.6521739 39.3103448 66.6521739 33.2413793 43.826087 33.2413793"></polygon>
        <polygon id="Stroke-1979" stroke="#000000" stroke-width="3.04347826" stroke-linejoin="round" points="91 100 21 100 36.2173913 87.862069 74.2608696 87.862069"></polygon>
        <path d="M75.7826087,87.862069 L34.6956522,87.862069 C32.1741304,87.862069 30.1304348,85.8244138 30.1304348,83.3103448 L30.1304348,69.6551724 L80.3478261,69.6551724 L80.3478261,83.3103448 C80.3478261,85.8244138 78.3041304,87.862069 75.7826087,87.862069 L75.7826087,87.862069 Z" id="Stroke-1980" stroke="#000000" stroke-width="3.04347826" stroke-linejoin="round"></path>
        <path d="M80.3478261,45.3793103 L30.1304348,45.3793103 L30.1304348,31.7241379 C30.1304348,29.210069 32.1741304,27.1724138 34.6956522,27.1724138 L75.7826087,27.1724138 C78.3041304,27.1724138 80.3478261,29.210069 80.3478261,31.7241379 L80.3478261,45.3793103 L80.3478261,45.3793103 Z" id="Stroke-1981" stroke="#000000" stroke-width="3.04347826" stroke-linejoin="round"></path>
        <polygon id="Stroke-1983" stroke="#000000" stroke-width="3.04347826" stroke-linejoin="round" points="30.1304348 69.6551724 80.3478261 69.6551724 80.3478261 45.3793103 30.1304348 45.3793103"></polygon>
        <polygon id="Stroke-1984" stroke="#000000" stroke-width="3.04347826" stroke-linejoin="round" points="66.6521739 27.1724138 43.826087 27.1724138 46.8695652 18.0689655 63.6086957 18.0689655"></polygon>
        <path d="M56,12 L49.9130435,18.0689655" id="Stroke-1985" stroke="#000000" stroke-width="3.04347826" stroke-linecap="round" stroke-linejoin="round"></path>
        <path d="M65.1304348,12 L59.0434783,18.0689655" id="Stroke-1986" stroke="#000000" stroke-width="3.04347826" stroke-linecap="round" stroke-linejoin="round"></path>
        <path d="M42.3043478,78.7586207 C42.3043478,80.4351724 40.9423913,81.7931034 39.2608696,81.7931034 C37.5793478,81.7931034 36.2173913,80.4351724 36.2173913,78.7586207 C36.2173913,77.082069 37.5793478,75.7241379 39.2608696,75.7241379 C40.9423913,75.7241379 42.3043478,77.082069 42.3043478,78.7586207 L42.3043478,78.7586207 Z" id="Stroke-1990" stroke="#000000" stroke-width="3.04347826" stroke-linejoin="round"></path>
        <path d="M74.2608696,78.7586207 C74.2608696,80.4351724 72.898913,81.7931034 71.2173913,81.7931034 C69.5358696,81.7931034 68.173913,80.4351724 68.173913,78.7586207 C68.173913,77.082069 69.5358696,75.7241379 71.2173913,75.7241379 C72.898913,75.7241379 74.2608696,77.082069 74.2608696,78.7586207 L74.2608696,78.7586207 Z" id="Stroke-1991" stroke="#000000" stroke-width="3.04347826" stroke-linejoin="round"></path>
        <path d="M42.3043478,87.862069 L42.3043478,100" id="Stroke-1994" stroke="#000000" stroke-width="3.04347826" stroke-linejoin="round"></path>
        <path d="M68.173913,87.862069 L68.173913,100" id="Stroke-1995" stroke="#000000" stroke-width="3.04347826" stroke-linejoin="round"></path>
        <path d="M28.6086957,93.9310345 L81.8695652,93.9310345" id="Stroke-1996" stroke="#000000" stroke-width="3.04347826" stroke-linejoin="round"></path>
        <polygon id="Stroke-2004" stroke="#000000" stroke-width="3.04347826" stroke-linejoin="round" points="43.826087 39.3103448 66.6521739 39.3103448 66.6521739 33.2413793 43.826087 33.2413793"></polygon>
    </g>
</svg>