<?xml version="1.0" encoding="UTF-8"?>
<svg width="42px" height="42px" viewBox="0 0 42 42" version="1.1" xmlns="http://www.w3.org/2000/svg" xmlns:xlink="http://www.w3.org/1999/xlink">
    <!-- Generator: Sketch 54.1 (76490) - https://sketchapp.com -->
    <title>Icons/Location</title>
    <desc>Created with Sketch.</desc>
    <g id="Icons/Location" stroke="none" stroke-width="1" fill="none" fill-rule="evenodd">
        <path d="M21.972973,21.2766561 L21.972973,26.7104887 C22.2114061,26.6735037 22.4605076,26.7762672 22.5998198,26.9924211 C23.04,27.6757895 23.4458108,28.2827368 23.9531532,28.7924211 C24.1990991,29.0393684 24.1984685,29.4391579 23.9518919,29.6854737 C23.8289189,29.8086316 23.6677928,29.8698947 23.5066667,29.8698947 C23.3449099,29.8698947 23.1834685,29.808 23.0601802,29.6842105 C22.6498946,29.2722169 22.3016422,28.8137792 21.972973,28.3331762 L21.972973,36.4093803 L28.9099099,33.2515111 L28.9099099,13.313524 L26.8882093,14.2338072 C25.2076324,17.3515112 22.6497745,20.5421908 22.2334234,21.0543158 C22.1599911,21.1447902 22.0714519,21.219712 21.972973,21.2766561 Z M20.7117117,20.9866211 C20.1737659,20.320768 17.8323786,17.3652914 16.2157204,14.4247701 L13.7747748,13.3136858 L13.7747748,22.7609483 C13.8719843,22.6817219 13.993683,22.6306794 14.1282432,22.6212632 C14.5249099,22.5934737 14.9341892,22.5732632 15.3516667,22.5795789 C15.7953153,22.5795789 16.2238288,22.6029474 16.6249099,22.6490526 C16.9708108,22.6888421 17.2192793,23.0021053 17.1795495,23.3485263 C17.1426577,23.6703158 16.8699099,23.9077895 16.5536486,23.9077895 C16.5296847,23.9077895 16.5054054,23.9065263 16.4811261,23.9036842 C16.1273423,23.8632632 15.7473874,23.8424211 15.3513514,23.8424211 C14.9628829,23.8392632 14.5838739,23.8553684 14.2165315,23.8812632 C14.0494714,23.8930096 13.8941715,23.8394029 13.7747748,23.7423961 L13.7747748,33.2516693 L20.7117117,36.4091304 L20.7117117,26.0162692 C20.7045653,26.0165108 20.697417,26.0166316 20.6902703,26.0166316 C20.514009,26.0166316 20.3386937,25.9430526 20.2138288,25.7993684 C19.703018,25.2107368 19.1751802,24.7926316 18.5524324,24.4831579 C18.2402703,24.3281053 18.1128829,23.9491579 18.2677027,23.6368421 C18.4225225,23.3238947 18.8005856,23.1966316 19.1127477,23.3516842 C19.6949087,23.640924 20.2223255,24.0159553 20.7117117,24.4901968 L20.7117117,20.9866211 Z M15.0068052,11.7931566 C14.7668249,11.0966473 14.6254955,10.4475745 14.6254955,9.88484211 C14.6254955,6.08842105 17.7092793,3 21.5,3 C25.2904054,3 28.3745045,6.08842105 28.3745045,9.88484211 C28.3745045,10.401721 28.2552688,10.991436 28.0498702,11.6238425 L29.1492342,11.1233684 C29.3977027,11.0103158 29.6833784,11.0103158 29.9318468,11.1233684 L38.130045,14.8553684 C38.4677477,15.0091579 38.6846847,15.3464211 38.6846847,15.7177895 L38.6846847,37.7368421 C38.6846847,38.0589474 38.5213514,38.3592632 38.2508108,38.5335789 C38.0956757,38.6333684 37.9175225,38.6842105 37.7387387,38.6842105 C37.6056757,38.6842105 37.4722973,38.6561053 37.3474324,38.5992632 L29.5405405,35.0453684 L21.7336486,38.5992632 C21.4851802,38.7123158 21.1995045,38.7123158 20.951036,38.5992632 L13.1441441,35.0453684 L5.33725225,38.5992632 C5.04495495,38.7328421 4.70441441,38.7078947 4.43387387,38.5335789 C4.16333333,38.3589474 4,38.0589474 4,37.7368421 L4,15.7177895 C4,15.3464211 4.21693694,15.0091579 4.55463964,14.8553684 L12.7528378,11.1233684 C13.0013063,11.0103158 13.286982,11.0103158 13.5354505,11.1233684 L15.0068052,11.7931566 Z M30.1711712,33.2512199 L36.7931081,36.2655789 L36.7931081,22.741349 C36.4982146,22.7572995 36.2258328,22.8189142 35.9650901,22.9285263 C35.8853153,22.962 35.8027027,22.9777895 35.7213514,22.9777895 C35.4747748,22.9777895 35.2408108,22.8322105 35.1395946,22.5903158 C35.004955,22.2685263 35.155991,21.8987368 35.4772973,21.7635789 C35.8884462,21.5907559 36.3304059,21.4946934 36.7931081,21.4769954 L36.7931081,16.3275789 L30.1711712,13.3132386 L30.1711712,28.9529893 C30.453471,28.6391132 30.732057,28.2551954 31.0222072,27.7825263 C31.2044595,27.4856842 31.5926126,27.3925263 31.8896396,27.5753684 C32.1863514,27.7582105 32.2787387,28.1472632 32.0964865,28.4441053 C31.5513063,29.3317895 31.0244144,29.9652632 30.4372973,30.4376842 C30.3570976,30.5022896 30.2657515,30.5441161 30.1711712,30.5637892 L30.1711712,33.2512199 Z M12.5135135,13.3136979 L5.89189189,16.3278947 L5.89189189,26.9037188 C6.27464143,26.3396757 6.71538841,25.8228883 7.20644144,25.3626316 C7.4609009,25.1245263 7.85977477,25.1381053 8.09783784,25.3923158 C8.33558559,25.6471579 8.32234234,26.0466316 8.0681982,26.2850526 C7.53405405,26.7855789 7.06864865,27.3644211 6.68522523,28.0054737 C6.5672973,28.2031579 6.35824324,28.3127368 6.14382883,28.3127368 C6.05887109,28.3127368 5.97316589,28.2955195 5.89189189,28.2597883 L5.89189189,36.2658947 L12.5135135,33.2516792 L12.5135135,13.3136979 Z M27.6486486,31.4213684 C26.7720721,31.4213684 26.0080631,31.3105263 25.3127928,31.0834737 C24.9817117,30.9751579 24.801036,30.6186316 24.9088739,30.2870526 C25.017027,29.9554737 25.3742793,29.7748421 25.7040991,29.8825263 C26.271036,30.0678947 26.907027,30.1578947 27.6486486,30.1582105 C27.7085586,30.1582105 27.7678378,30.1569474 27.8261712,30.1537895 C28.1736486,30.1348421 28.470045,30.4048421 28.4870721,30.7534737 C28.5044144,31.1017895 28.2363964,31.3983158 27.8882883,31.4153684 C27.8097748,31.4194737 27.7296847,31.4213684 27.6486486,31.4213684 Z M32.7022072,26.6428421 C32.6041441,26.6428421 32.5048198,26.6197895 32.4118018,26.5714737 C32.1027928,26.4104211 31.9823423,26.0292632 32.1428378,25.7197895 C32.5180631,24.9969474 32.9235586,24.2358947 33.3905405,23.5781053 C33.5926577,23.2935789 33.9861712,23.2275789 34.269955,23.4293684 C34.5537387,23.6317895 34.6202703,24.0258947 34.4184685,24.3101053 C33.9981532,24.9018947 33.6169369,25.6187368 33.2622072,26.3021053 C33.1496396,26.5187368 32.9298649,26.6428421 32.7022072,26.6428421 Z M9.5854955,25.0847368 C9.35752252,25.0847368 9.13743243,24.9603158 9.02518018,24.7433684 C8.865,24.4338947 8.98576577,24.0524211 9.29509009,23.892 C10.0168468,23.5174737 10.8133333,23.2190526 11.6624775,23.0046316 C12.0004955,22.9206316 12.3429279,23.1246316 12.4280631,23.4628421 C12.5131982,23.8010526 12.3082432,24.1443158 11.9705405,24.2295789 C11.2156757,24.42 10.5109459,24.6836842 9.87527027,25.0133684 C9.78225225,25.062 9.68324324,25.0847368 9.5854955,25.0847368 Z M21.5,4.89505263 C18.7526577,4.89505263 16.5173874,7.13368421 16.5173874,9.88515789 C16.5173874,11.8032632 19.3255856,16.0989474 21.4996847,18.9287368 C23.6740991,16.098 26.4822973,11.8016842 26.4822973,9.88515789 C26.4822973,7.13368421 24.2473423,4.89505263 21.5,4.89505263 Z M21.5,12.6887368 C19.9562162,12.6887368 18.7003153,11.4309474 18.7003153,9.88515789 C18.7003153,8.33905263 19.9562162,7.08126316 21.5,7.08126316 C23.0437838,7.08126316 24.2996847,8.33905263 24.2996847,9.88515789 C24.2996847,11.4309474 23.0437838,12.6887368 21.5,12.6887368 Z M21.5,8.34442105 C20.6518018,8.34442105 19.9615766,9.03536842 19.9615766,9.88515789 C19.9615766,10.7346316 20.6514865,11.4255789 21.5,11.4255789 C22.3481982,11.4255789 23.0384234,10.7343158 23.0384234,9.88515789 C23.0384234,9.03536842 22.3481982,8.34442105 21.5,8.34442105 Z" id="Icon" fill="#000000" fill-rule="nonzero"></path>
    </g>
</svg>