<?xml version="1.0" encoding="UTF-8"?>
<svg width="23px" height="18px" viewBox="0 0 23 18" version="1.1" xmlns="http://www.w3.org/2000/svg" xmlns:xlink="http://www.w3.org/1999/xlink">
    <!-- Generator: Sketch 54.1 (76490) - https://sketchapp.com -->
    <title>tram-icon</title>
    <desc>Created with Sketch.</desc>
    <g id="Symbols" stroke="none" stroke-width="1" fill="none" fill-rule="evenodd">
        <g id="Icons/Tram" transform="translate(-5.000000, -7.000000)" fill="#000000" fill-rule="nonzero">
            <g id="tram-icon" transform="translate(5.138968, 7.175515)">
                <path d="M2.09711579,14.9928139 L2.67017895,14.9928139 C2.70988421,15.5382385 3.20450526,15.9724577 3.81315789,15.9724577 C4.42132632,15.9724577 4.91594737,15.5382385 4.95565263,14.9928139 L5.60643158,14.9928139 C5.64565263,15.5382385 6.14027368,15.9724577 6.74892632,15.9724577 C7.35709474,15.9724577 7.85171579,15.5382385 7.89142105,14.9928139 L14.7764105,14.9928139 C14.8156316,15.5382385 15.3102526,15.9724577 15.9189053,15.9724577 C16.5275579,15.9724577 17.0221789,15.5382385 17.0614,14.9928139 L17.7121789,14.9928139 C17.7518842,15.5382385 18.2465053,15.9724577 18.8551579,15.9724577 C19.4633263,15.9724577 19.9584316,15.5382385 19.9976526,14.9928139 L20.0530947,14.9928139 C20.0540632,14.9928139 20.0550316,14.9930605 20.0555158,14.9930605 L20.7019368,14.9930605 C21.7805158,14.9930605 22.6581474,14.0994714 22.6581474,13.0009783 L22.6581474,6.07492347 C22.6586316,4.97643032 21.781,4.0825947 20.7024211,4.0825947 L12.2529474,4.0825947 L12.8647474,2.66799196 L13.6477158,3.04895087 C13.9493789,3.19590977 14.3106,3.06571799 14.4548947,2.75848512 C14.5991895,2.45125224 14.4713579,2.08336183 14.1696947,1.9366495 L10.3151368,0.0604577182 C10.0134737,-0.0865011859 9.65225263,0.0436905949 9.50844211,0.350923472 C9.36414737,0.658156348 9.49197895,1.02604676 9.79364211,1.17275909 L11.7716421,2.1356358 L11.0378211,3.83256731 C11.0024737,3.91418375 10.9867368,3.99900566 10.9872211,4.0825947 L2.09711579,4.0825947 C1.01853684,4.0825947 0.140905263,4.97643032 0.140905263,6.07492347 L0.140905263,13.0007317 C0.140905263,14.0992248 1.01853684,14.9928139 2.09711579,14.9928139 Z M18.4564105,5.31547142 L20.7009684,5.31547142 C21.1113368,5.31547142 21.4466526,5.65623854 21.4466526,6.07492347 L21.4466526,8.9906769 L18.4561684,8.28473169 L18.4561684,5.31547142 L18.4564105,5.31547142 Z M14.4369789,5.31547142 L17.2458842,5.31547142 L17.2458842,8.1636632 L14.4369789,8.1636632 L14.4369789,5.31547142 Z M10.1756842,5.31547142 L13.2266947,5.31547142 L13.2266947,8.1636632 L10.1756842,8.1636632 L10.1756842,5.31547142 Z M5.67301053,5.31547142 L8.96564211,5.31547142 L8.96564211,8.1636632 L5.67301053,8.1636632 L5.67301053,5.31547142 Z M1.35143158,6.07517005 C1.35143158,5.65673169 1.68626316,5.31571799 2.09711579,5.31571799 L4.46248421,5.31571799 L4.46248421,8.1636632 L1.35143158,8.1636632 L1.35143158,6.07517005 Z M1.35143158,11.615718 L2.07774737,11.615718 C2.41209474,11.615718 2.68301053,11.3398002 2.68301053,10.9992796 C2.68301053,10.6585125 2.41209474,10.3828413 2.07774737,10.3828413 L1.35143158,10.3828413 L1.35143158,9.39653991 L17.8061158,9.39653991 L21.4461684,10.2561016 L21.4461684,11.6162111 L20.9619579,11.6162111 C20.6271263,11.6162111 20.3566947,11.8916358 20.3566947,12.2326495 C20.3566947,12.57317 20.6271263,12.8490879 20.9619579,12.8490879 L21.4461684,12.8490879 L21.4461684,13.0007317 C21.4461684,13.4194166 21.1108526,13.7599372 20.7004842,13.7599372 L2.09711579,13.7596906 C1.68626316,13.7596906 1.35143158,13.41917 1.35143158,13.0004851 L1.35143158,11.615718 Z" id="tram_1_"></path>
                <path d="M22.0662,16.4313344 L0.605263158,16.4313344 C0.270431579,16.4313344 1.95399252e-14,16.7072522 1.95399252e-14,17.0477728 C1.95399252e-14,17.3882933 0.270673684,17.6642111 0.605263158,17.6642111 L22.0662,17.6642111 C22.4005474,17.6642111 22.6714632,17.3882933 22.6714632,17.0477728 C22.6714632,16.7072522 22.4005474,16.4313344 22.0662,16.4313344 Z" id="road"></path>
            </g>
        </g>
    </g>
</svg>