<svg width="112" height="112" xmlns="http://www.w3.org/2000/svg"><g fill="none" fill-rule="evenodd"><path fill="#63D3FD" fill-rule="nonzero" d="M34.696 69.655h41.087V45.38H34.696z"/><path fill="#FFF" fill-rule="nonzero" d="M30.13 69.655h4.566V45.38H30.13z"/><path fill="#3DB9F9" fill-rule="nonzero" d="M75.783 69.655h4.565V45.38h-4.565z"/><path fill="#FFE100" fill-rule="nonzero" d="M91 100H21l15.217-12.138h38.044zM75.783 45.38H34.696V31.723a4.558 4.558 0 0 1 4.565-4.552h31.956a4.558 4.558 0 0 1 4.566 4.552V45.38z"/><path d="M39.26 27.172h-4.564a4.558 4.558 0 0 0-4.566 4.552V45.38h4.566V31.724a4.558 4.558 0 0 1 4.565-4.552" fill="#FFF" fill-rule="nonzero"/><path d="M75.783 27.172h-4.566a4.558 4.558 0 0 1 4.566 4.552V45.38h4.565V31.724a4.558 4.558 0 0 0-4.565-4.552" fill="#FFA800" fill-rule="nonzero"/><path d="M34.696 69.655h41.087V83.31a4.558 4.558 0 0 1-4.566 4.552H39.261a4.558 4.558 0 0 1-4.565-4.552V69.655z" fill="#FFE100" fill-rule="nonzero"/><path d="M71.217 87.862h4.566a4.558 4.558 0 0 0 4.565-4.552V69.655h-4.565V83.31a4.558 4.558 0 0 1-4.566 4.552" fill="#FFA800" fill-rule="nonzero"/><path d="M34.696 87.862h4.565a4.558 4.558 0 0 1-4.565-4.552V69.655H30.13V83.31a4.558 4.558 0 0 0 4.566 4.552" fill="#FFF" fill-rule="nonzero"/><path fill="#FFE100" fill-rule="nonzero" d="M66.652 27.172H43.826l3.044-9.103h16.739z"/><path d="M57.522 12l-6.087 6.069M66.652 12l-6.087 6.069" stroke="#FFE100" stroke-width="3.043" stroke-linecap="round" stroke-linejoin="round"/><path d="M42.304 78.759a3.038 3.038 0 0 1-3.043 3.034 3.038 3.038 0 0 1-3.044-3.034 3.038 3.038 0 0 1 3.044-3.035 3.038 3.038 0 0 1 3.043 3.035M74.26 78.759a3.038 3.038 0 0 1-3.043 3.034 3.038 3.038 0 0 1-3.043-3.034 3.038 3.038 0 0 1 3.043-3.035 3.038 3.038 0 0 1 3.044 3.035M43.826 39.31h22.826v-6.069H43.826z" fill="#63D3FD" fill-rule="nonzero"/><path stroke="#000" stroke-width="3.043" stroke-linejoin="round" d="M91 100H21l15.217-12.138h38.044z"/><path d="M75.783 87.862H34.696a4.558 4.558 0 0 1-4.566-4.552V69.655h50.218V83.31a4.558 4.558 0 0 1-4.565 4.552zM80.348 45.38H30.13V31.723a4.558 4.558 0 0 1 4.566-4.552h41.087a4.558 4.558 0 0 1 4.565 4.552V45.38zM30.13 69.655h50.218V45.38H30.13z" stroke="#000" stroke-width="3.043" stroke-linejoin="round"/><path stroke="#000" stroke-width="3.043" stroke-linejoin="round" d="M66.652 27.172H43.826l3.044-9.103h16.739z"/><path d="M56 12l-6.087 6.069M65.13 12l-6.087 6.069" stroke="#000" stroke-width="3.043" stroke-linecap="round" stroke-linejoin="round"/><path d="M42.304 78.759a3.038 3.038 0 0 1-3.043 3.034 3.038 3.038 0 0 1-3.044-3.034 3.038 3.038 0 0 1 3.044-3.035 3.038 3.038 0 0 1 3.043 3.035zM74.26 78.759a3.038 3.038 0 0 1-3.043 3.034 3.038 3.038 0 0 1-3.043-3.034 3.038 3.038 0 0 1 3.043-3.035 3.038 3.038 0 0 1 3.044 3.035zM42.304 87.862V100M68.174 87.862V100M28.609 93.931h53.26M43.826 39.31h22.826v-6.069H43.826z" stroke="#000" stroke-width="3.043" stroke-linejoin="round"/></g></svg>
