<svg width="42" height="42" xmlns="http://www.w3.org/2000/svg"><path d="M21.973 21.277v5.433a.63.63 0 0 1 .627.282c.44.684.846 1.29 1.353 1.8a.632.632 0 0 1-.893.892 9.424 9.424 0 0 1-1.087-1.35v8.075l6.937-3.157V13.314l-2.022.92c-1.68 3.118-4.238 6.308-4.655 6.82a.944.944 0 0 1-.26.223zm-1.261-.29c-.538-.666-2.88-3.622-4.496-6.562l-2.441-1.111v9.447a.627.627 0 0 1 .353-.14 14.36 14.36 0 0 1 1.224-.041c.443 0 .872.023 1.273.07a.632.632 0 0 1-.144 1.254c-.354-.04-.734-.062-1.13-.062-.388-.003-.767.013-1.134.04a.627.627 0 0 1-.442-.14v9.51l6.937 3.157V26.016a.635.635 0 0 1-.498-.217c-.511-.588-1.039-1.006-1.662-1.316a.632.632 0 0 1 .56-1.131c.583.289 1.11.664 1.6 1.138v-3.503zm-5.705-9.194c-.24-.696-.382-1.345-.382-1.908C14.625 6.088 17.71 3 21.5 3c3.79 0 6.875 3.088 6.875 6.885 0 .517-.12 1.106-.325 1.739l1.1-.5a.945.945 0 0 1 .782 0l8.198 3.731a.948.948 0 0 1 .555.863v22.019a.948.948 0 0 1-1.338.862l-7.806-3.554-7.807 3.554a.945.945 0 0 1-.783 0l-7.807-3.554L5.337 38.6A.944.944 0 0 1 4 37.737v-22.02c0-.37.217-.708.555-.862l8.198-3.732a.945.945 0 0 1 .782 0l1.472.67zM30.17 33.251l6.622 3.015V22.74a2.447 2.447 0 0 0-.828.188.628.628 0 0 1-.825-.339.632.632 0 0 1 .337-.826 3.75 3.75 0 0 1 1.316-.287v-5.15l-6.622-3.014v15.64a8 8 0 0 0 .851-1.17.63.63 0 1 1 1.074.661c-.545.888-1.072 1.521-1.659 1.994a.627.627 0 0 1-.266.126v2.687zM12.514 13.314l-6.622 3.014v10.576a9.16 9.16 0 0 1 1.314-1.541.63.63 0 1 1 .862.922c-.534.5-1 1.08-1.383 1.72a.63.63 0 0 1-.793.255v8.006l6.622-3.014V13.314zM27.649 31.42c-.877 0-1.64-.11-2.336-.338a.632.632 0 0 1 .391-1.2c.567.185 1.203.275 1.945.275.06 0 .119-.001.177-.004a.63.63 0 1 1 .062 1.262 4.597 4.597 0 0 1-.24.005zm5.053-4.778a.632.632 0 0 1-.56-.923c.376-.723.782-1.484 1.249-2.142a.63.63 0 1 1 1.027.732c-.42.592-.801 1.309-1.156 1.992a.63.63 0 0 1-.56.34zM9.585 25.085a.63.63 0 0 1-.29-1.193 10.98 10.98 0 0 1 2.367-.887.631.631 0 0 1 .309 1.225c-.755.19-1.46.454-2.096.783a.623.623 0 0 1-.29.072zM21.5 4.895a4.992 4.992 0 0 0-4.983 4.99c0 1.918 2.809 6.214 4.983 9.044 2.174-2.831 4.982-7.127 4.982-9.044a4.992 4.992 0 0 0-4.982-4.99zm0 7.794a2.805 2.805 0 0 1 0-5.608 2.805 2.805 0 0 1 0 5.608zm0-4.345a1.541 1.541 0 0 0 0 3.082 1.541 1.541 0 0 0 0-3.082z" fill="#000" fill-rule="nonzero"/></svg>
