<svg xmlns="http://www.w3.org/2000/svg" width="200" height="50"><defs><clipPath id="a"><path d="M0 0h858.898v612.283H0V0z"/></clipPath></defs><g clip-path="url(#a)" transform="matrix(1.25 0 0 -1.25 -46.063 705.512)"><path d="M112.092 537.206a1.676 1.676 0 0 1-.689.321 4.066 4.066 0 0 1-.903.094c-.16 0-.344-.009-.548-.027a25.525 25.525 0 0 1-.602-.06 12.592 12.592 0 0 1-.937-.14c-.107-.027-.152-.094-.134-.201l.12-.71c.01-.097.063-.146.16-.146.036 0 .116.01.241.033.125.022.273.045.442.067l.522.067c.179.022.334.033.468.033.259 0 .467-.029.623-.087a.726.726 0 0 0 .354-.26 1.03 1.03 0 0 0 .16-.422c.027-.165.041-.359.041-.582v-.401l-1.017-.054a4.659 4.659 0 0 1-1.017-.16 2.54 2.54 0 0 1-.843-.402 1.856 1.856 0 0 1-.568-.688c-.14-.282-.208-.623-.208-1.025 0-.659.17-1.15.509-1.47.339-.322.776-.482 1.31-.482.402 0 .763.065 1.085.194.32.13.61.292.87.488l.133-.402a.61.61 0 0 1 .053-.106c.018-.028.058-.04.12-.04h.67c.116 0 .174.048.174.146v4.897c0 .374-.051.685-.155.93a1.486 1.486 0 0 1-.434.595m-.682-5.137a3.275 3.275 0 0 0-.67-.361 1.979 1.979 0 0 0-.762-.174c-.286 0-.51.088-.676.267-.164.18-.247.455-.247.83 0 .714.384 1.097 1.151 1.15l1.204.08v-1.792zm3.549 12.48c.32 0 .629.04.924.121.293.08.552.202.775.368.223.165.4.374.529.629.13.254.194.56.194.916 0 .214-.025.408-.073.582a1.41 1.41 0 0 1-.255.488c-.12.152-.278.297-.475.435a5.332 5.332 0 0 1-.737.421l-.695.335c-.374.178-.622.35-.742.515a.864.864 0 0 0-.18.515c0 .232.09.41.274.535.182.125.412.187.689.187.16 0 .32-.01.48-.033.161-.022.311-.047.45-.074.137-.026.26-.05.367-.073a1.31 1.31 0 0 1 .228-.034c.071 0 .115.012.133.034.018.022.036.06.055.114l.173.722c.018.098-.023.16-.12.188-.206.044-.456.093-.75.146-.294.054-.593.08-.896.08-.722 0-1.298-.169-1.726-.507-.428-.34-.642-.808-.642-1.405 0-.402.103-.75.307-1.044.205-.294.576-.57 1.11-.829l.75-.362c.375-.178.627-.35.756-.515a.96.96 0 0 0 .194-.609.621.621 0 0 0-.308-.555c-.205-.129-.464-.193-.775-.193-.179 0-.362.013-.549.04a8.47 8.47 0 0 0-.984.2c-.13.036-.22.058-.274.067-.07.01-.12-.04-.147-.147l-.188-.723c-.026-.098.01-.169.108-.214.08-.026.19-.06.328-.1.138-.04.298-.076.481-.107a9.98 9.98 0 0 1 .582-.08c.205-.022.415-.033.629-.033m41.698.133h.95c.116 0 .174.049.174.148v5.324c.32.098.64.163.957.194.317.032.569.047.756.047.133 0 .204.049.214.147l.133.843a.314.314 0 0 1 0 .127c-.008.031-.04.055-.093.074a.362.362 0 0 1-.134.026h-.134a2.8 2.8 0 0 1-.749-.133 6.628 6.628 0 0 1-1.07-.442l-.108.348a.367.367 0 0 1-.053.113c-.017.023-.062.034-.134.034h-.709c-.116 0-.174-.05-.174-.147v-6.555c0-.099.058-.148.174-.148m-32.534-10.815c.027.067.04.243.04.529 0 .5-.048.95-.147 1.351-.098.401-.249.74-.455 1.017a2.012 2.012 0 0 1-.782.636c-.317.146-.693.22-1.13.22-.412 0-.79-.07-1.138-.207a2.31 2.31 0 0 1-.903-.649c-.254-.295-.455-.67-.602-1.125-.147-.454-.22-1.002-.22-1.644 0-1.205.256-2.087.768-2.65.513-.562 1.239-.842 2.174-.842.366 0 .746.035 1.138.107.392.071.776.183 1.15.334.099.045.134.112.107.201l-.213.71c-.019.061-.052.096-.101.106a.247.247 0 0 1-.14-.014 6.813 6.813 0 0 0-.85-.254 3.764 3.764 0 0 0-.85-.106c-.267 0-.508.038-.722.113-.215.076-.4.198-.555.368-.157.17-.282.392-.375.67-.094.275-.145.619-.154 1.029h3.747c.115 0 .187.033.213.1m-3.96.89c.089 1.213.54 1.82 1.352 1.82.25 0 .46-.05.628-.148.17-.098.306-.23.408-.394.103-.165.176-.36.22-.583.046-.222.072-.454.08-.695h-2.688zm-2.289 2.73h-1.873v1.59c0 .109-.058.157-.174.149l-.95-.135c-.115-.009-.174-.062-.174-.16v-1.444h-.696c-.115 0-.173-.05-.173-.149v-.735c0-.099.058-.147.173-.147h.696v-4.054c0-.714.135-1.208.402-1.484.267-.277.69-.415 1.271-.415.116 0 .243.007.38.02a6.257 6.257 0 0 1 .81.133c.126.031.232.065.322.1.09.036.125.098.106.188l-.16.63c-.027.088-.076.133-.147.133-.053 0-.182-.025-.388-.074a2.72 2.72 0 0 0-.641-.074c-.233 0-.4.086-.503.254-.103.17-.154.46-.154.87v3.773h1.873c.116 0 .174.048.174.147v.735c0 .099-.058.149-.174.149m-17.206.053a.36.36 0 0 1-.134.026h-.133a2.8 2.8 0 0 1-.75-.133 6.734 6.734 0 0 1-1.07-.442l-.107.347a.446.446 0 0 1-.053.115c-.019.022-.063.034-.134.034h-.71c-.115 0-.173-.05-.173-.149v-6.555c0-.098.058-.147.173-.147h.95c.116 0 .175.05.175.147v5.325c.32.098.639.163.956.194.317.03.569.047.756.047.134 0 .205.05.214.147l.133.842c.01.055.01.097 0 .128-.008.031-.04.055-.093.074m-5.161 16.695H88.87c-.099 0-.148-.059-.148-.174v-.803c0-.116.05-.174.148-.174h2.675v-8.254c0-.099.058-.148.174-.148h.977c.115 0 .174.049.174.148v8.254h2.636c.098 0 .146.058.146.174v.803c0 .115-.048.174-.146.174m41.478-3.733h.696v-4.054c0-.713.134-1.208.401-1.485.268-.276.692-.414 1.272-.414.116 0 .243.006.38.02.139.013.277.03.416.053.138.022.269.05.394.08.126.031.233.065.321.1.09.036.125.098.108.188l-.161.629c-.027.089-.076.134-.147.134-.054 0-.183-.025-.388-.074a2.722 2.722 0 0 0-.642-.074c-.232 0-.4.085-.502.254-.103.17-.154.46-.154.87v3.773h1.873c.116 0 .174.05.174.147v.736c0 .098-.058.147-.174.147h-1.873v1.592c0 .107-.058.156-.173.148l-.95-.134c-.117-.01-.175-.063-.175-.161v-1.445h-.696c-.115 0-.173-.05-.173-.147v-.736c0-.098.058-.147.173-.147M95.44 535.735h-1.043c-.09 0-.134-.045-.134-.134v-3.733a3.597 3.597 0 0 0-.522-.12 5.007 5.007 0 0 0-.789-.053c-.526 0-.968.08-1.325.24-.356.16-.646.4-.87.716-.222.317-.38.71-.474 1.183a8.594 8.594 0 0 0-.14 1.647c0 .57.05 1.081.154 1.531.102.45.263.835.48 1.151.22.316.498.56.837.729.34.17.745.254 1.218.254.34 0 .649-.025.93-.073.28-.05.563-.115.849-.194.09-.027.147.017.174.133l.254.789c.027.1-.022.17-.147.215a6.09 6.09 0 0 1-.863.207c-.37.067-.738.1-1.104.1-1.337 0-2.372-.421-3.104-1.264-.73-.843-1.096-2.147-1.096-3.913 0-1.58.356-2.748 1.07-3.505.714-.759 1.734-1.137 3.063-1.137a9.213 9.213 0 0 1 2.134.267c.174.045.302.084.382.12.053.018.1.046.14.08.04.036.06.104.06.201v4.429c0 .089-.044.134-.134.134m6.076 8.815c.4 0 .762.064 1.083.194.32.128.611.291.87.488l.134-.401a.569.569 0 0 1 .053-.108c.018-.027.058-.04.12-.04h.67c.115 0 .174.049.174.148v4.896c0 .374-.052.685-.155.93a1.486 1.486 0 0 1-.434.595c-.187.152-.417.259-.69.321a4.02 4.02 0 0 1-.902.094c-.16 0-.344-.01-.549-.026a25.47 25.47 0 0 1-.602-.061 13.668 13.668 0 0 1-.936-.14c-.108-.028-.152-.094-.134-.201l.12-.71c.01-.097.063-.147.16-.147.036 0 .117.012.242.034.125.022.271.045.441.067l.522.067c.178.022.335.033.468.033.26 0 .466-.029.622-.087a.726.726 0 0 0 .355-.26 1.03 1.03 0 0 0 .16-.422c.027-.165.04-.359.04-.582v-.401l-1.016-.054a4.659 4.659 0 0 1-1.017-.16 2.538 2.538 0 0 1-.843-.402 1.864 1.864 0 0 1-.568-.689c-.14-.281-.208-.622-.208-1.024 0-.659.17-1.15.509-1.471.339-.321.775-.481 1.31-.481m.63 3.277l1.203.08v-1.793a3.226 3.226 0 0 0-.669-.36 1.979 1.979 0 0 0-.762-.174c-.286 0-.51.088-.676.267-.165.178-.247.455-.247.83 0 .713.384 1.097 1.15 1.15m4.592-13.96c.027.068.04.244.04.53 0 .5-.048.95-.147 1.351a2.81 2.81 0 0 1-.455 1.017 2.02 2.02 0 0 1-.782.636c-.317.146-.694.22-1.13.22-.411 0-.79-.07-1.138-.207a2.3 2.3 0 0 1-.903-.649c-.255-.295-.455-.67-.602-1.125-.147-.454-.22-1.002-.22-1.644 0-1.205.256-2.087.768-2.65.513-.562 1.238-.842 2.175-.842.365 0 .744.035 1.136.107.393.071.776.183 1.151.334.099.045.134.112.107.201l-.214.71c-.018.061-.051.096-.1.106a.247.247 0 0 1-.14-.014 6.8 6.8 0 0 0-.85-.254 3.781 3.781 0 0 0-.85-.106c-.267 0-.509.038-.723.113a1.371 1.371 0 0 0-.554.368c-.156.17-.281.392-.375.67-.094.275-.145.619-.154 1.029h3.746c.116 0 .188.033.214.1m-3.96.89c.09 1.213.54 1.82 1.351 1.82.25 0 .46-.05.63-.148.168-.098.305-.23.407-.394.103-.165.176-.36.221-.583a4.45 4.45 0 0 0 .08-.695h-2.689zm6.39 15.812c.331 0 .587-.09.77-.268.183-.178.275-.535.275-1.07v-4.401c0-.099.057-.148.174-.148h.95c.116 0 .173.049.173.148v4.829c0 .366-.047.676-.14.93a1.597 1.597 0 0 1-.395.622c-.17.16-.37.277-.602.348a2.577 2.577 0 0 1-.763.107c-.374 0-.733-.06-1.077-.18a6.171 6.171 0 0 1-.97-.435l-.107.334a.428.428 0 0 1-.06.107c-.022.027-.064.04-.127.04h-.709c-.116 0-.174-.05-.174-.147v-6.555c0-.099.058-.148.174-.148h.95c.116 0 .174.049.174.148v5.284c.196.116.428.22.696.314.267.094.53.14.789.14m-10.434-.173c.134 0 .205.049.214.147l.133.843c.01.054.01.096 0 .127-.008.031-.04.055-.093.074a.358.358 0 0 1-.133.026h-.134a2.8 2.8 0 0 1-.75-.133 6.628 6.628 0 0 1-1.07-.442l-.107.348a.386.386 0 0 1-.053.113c-.018.023-.063.034-.134.034h-.71c-.115 0-.173-.05-.173-.147v-6.555c0-.099.058-.148.173-.148h.95c.116 0 .175.049.175.148v5.324c.32.098.64.163.956.194.317.032.569.047.756.047m75.52-16.528c.028.067.04.243.04.529 0 .5-.048.95-.146 1.351-.098.401-.25.74-.454 1.017a2.023 2.023 0 0 1-.784.636c-.316.146-.693.22-1.13.22-.41 0-.79-.07-1.137-.207a2.308 2.308 0 0 1-.904-.649c-.254-.295-.454-.67-.602-1.125-.146-.454-.22-1.002-.22-1.644 0-1.205.257-2.087.769-2.65.513-.562 1.238-.842 2.174-.842.366 0 .745.035 1.138.107.392.071.776.183 1.15.334.098.045.134.112.107.201l-.214.71c-.018.061-.051.096-.1.106a.247.247 0 0 1-.141-.014 6.84 6.84 0 0 0-.85-.254 3.776 3.776 0 0 0-.849-.106c-.268 0-.509.038-.722.113-.214.076-.4.198-.556.368-.155.17-.28.392-.375.67-.093.275-.145.619-.153 1.029h3.746c.116 0 .187.033.214.1m-3.96.89c.09 1.213.54 1.82 1.351 1.82.25 0 .46-.05.629-.148.169-.098.305-.23.409-.394.101-.165.176-.36.22-.583a4.45 4.45 0 0 0 .08-.695h-2.69zm9.335-1.15c-.12.151-.278.296-.475.434-.196.138-.44.279-.735.421l-.696.335c-.375.178-.622.35-.742.516a.86.86 0 0 0-.181.514c0 .232.091.41.274.535.184.125.413.187.69.187.16 0 .32-.011.48-.033.162-.022.311-.047.45-.073l.367-.074c.107-.022.183-.033.228-.033.07 0 .115.01.134.033.017.022.035.06.053.114l.173.722c.018.098-.021.16-.12.188-.205.044-.455.094-.749.146-.294.054-.594.081-.896.081-.723 0-1.298-.17-1.727-.508-.427-.34-.642-.808-.642-1.405 0-.401.103-.749.308-1.044.206-.294.576-.57 1.111-.829l.75-.361c.373-.179.625-.35.755-.516a.953.953 0 0 0 .193-.608.62.62 0 0 0-.306-.556c-.207-.129-.465-.193-.777-.193-.178 0-.361.013-.548.04a7.958 7.958 0 0 0-.984.201c-.13.035-.22.057-.274.067-.071.008-.12-.04-.146-.148l-.188-.723c-.027-.097.008-.169.106-.213.082-.026.19-.06.328-.1.138-.041.299-.076.482-.108.183-.031.377-.057.583-.08.204-.022.414-.033.627-.033.321 0 .63.04.924.12.294.08.553.202.776.368.223.165.399.374.528.629.13.254.194.56.194.917 0 .213-.024.407-.073.581a1.368 1.368 0 0 1-.255.489m-12.74 3.558c-.17.16-.373.277-.61.348a2.65 2.65 0 0 1-.769.107c-.348 0-.69-.054-1.024-.16a5.611 5.611 0 0 1-.93-.389v2.97c0 .099-.057.148-.173.148h-.95c-.117 0-.175-.05-.175-.148v-9.258c0-.098.058-.147.175-.147h.95c.116 0 .174.05.174.147v5.285c.195.115.432.22.708.315.277.093.545.14.803.14.33 0 .59-.09.783-.268.191-.178.287-.535.287-1.07v-4.402c0-.098.058-.147.174-.147h.95c.116 0 .174.05.174.147v4.83c0 .365-.048.676-.147.93-.098.254-.233.461-.4.622m-45.247 14.5a2.31 2.31 0 0 1-1.01-.207 7.572 7.572 0 0 1-.756-.407l-.108.334a.384.384 0 0 1-.06.107c-.022.027-.065.04-.127.04h-.709c-.116 0-.175-.05-.175-.147v-9.66c0-.097.059-.147.175-.147h.95c.116 0 .174.05.174.148v3.104c.481-.188.905-.281 1.27-.281.92 0 1.644.312 2.175.936.53.624.796 1.57.796 2.836 0 1.097-.22 1.93-.663 2.495-.441.567-1.085.85-1.932.85m.829-5.42c-.267-.409-.673-.614-1.217-.614-.224 0-.45.035-.676.107a3.096 3.096 0 0 0-.582.241v4.148c.196.115.401.222.615.32.214.098.473.147.776.147.526 0 .905-.2 1.137-.602.232-.4.348-1.061.348-1.98 0-.767-.133-1.356-.401-1.766m29.698 5.419c-.43 0-.819-.071-1.172-.214a2.33 2.33 0 0 1-.909-.662c-.254-.3-.45-.685-.589-1.157-.138-.474-.207-1.045-.207-1.713 0-1.187.236-2.045.71-2.575.472-.532 1.172-.796 2.1-.796.428 0 .818.071 1.17.213.353.143.656.364.91.663.254.298.45.684.589 1.157.138.473.207 1.044.207 1.712 0 1.186-.236 2.045-.71 2.576-.472.53-1.172.796-2.1.796m1.118-5.438c-.219-.406-.604-.61-1.158-.61-.259 0-.481.045-.668.135-.188.089-.342.238-.463.447-.12.21-.206.48-.26.81a7.67 7.67 0 0 0-.08 1.218c0 .758.107 1.342.32 1.752.215.41.598.615 1.151.615.267 0 .495-.044.683-.133.187-.09.341-.24.462-.449.12-.209.206-.479.26-.809.054-.33.08-.736.08-1.218 0-.766-.11-1.353-.327-1.758m42.688-8.762c-.009.031-.04.055-.093.074a.36.36 0 0 1-.135.026h-.133a2.8 2.8 0 0 1-.75-.133 6.73 6.73 0 0 1-1.07-.442l-.107.347a.362.362 0 0 1-.054.115c-.017.022-.062.034-.133.034h-.71c-.115 0-.173-.05-.173-.149v-6.555c0-.098.058-.147.174-.147h.95c.116 0 .174.05.174.147v5.325c.321.098.64.163.957.194.316.03.567.047.755.047.134 0 .205.05.214.147l.134.842c.01.055.01.097 0 .128m-4.892-3.6c.027.068.04.244.04.53 0 .5-.05.95-.147 1.351-.099.401-.25.74-.455 1.017a2.02 2.02 0 0 1-.783.636c-.317.146-.693.22-1.131.22-.41 0-.789-.07-1.137-.207a2.308 2.308 0 0 1-.903-.649c-.253-.295-.455-.67-.602-1.125-.147-.454-.22-1.002-.22-1.644 0-1.205.256-2.087.769-2.65.512-.562 1.237-.842 2.174-.842.365 0 .744.035 1.137.107.393.071.776.183 1.15.334.098.045.135.112.108.201l-.215.71c-.017.061-.05.096-.1.106a.246.246 0 0 1-.14-.014 6.76 6.76 0 0 0-.85-.254 3.782 3.782 0 0 0-.85-.106c-.267 0-.508.038-.722.113a1.379 1.379 0 0 0-.556.368 1.88 1.88 0 0 0-.374.67c-.093.275-.145.619-.153 1.029h3.745c.117 0 .187.033.215.1m-3.96.89c.09 1.213.539 1.82 1.35 1.82.25 0 .46-.05.63-.148.17-.098.305-.23.408-.394a1.77 1.77 0 0 0 .22-.583c.044-.222.071-.454.08-.695h-2.688zm-2.29 2.73h-1.872v1.59c0 .109-.059.157-.175.149l-.949-.135c-.116-.009-.174-.062-.174-.16v-1.444h-.696c-.117 0-.173-.05-.173-.149v-.735c0-.099.056-.147.173-.147h.696v-4.054c0-.714.133-1.208.4-1.484.268-.277.693-.415 1.272-.415.115 0 .243.007.381.02a6.301 6.301 0 0 1 .81.133c.124.031.232.065.32.1.09.036.126.098.108.188l-.16.63c-.027.088-.076.133-.148.133-.053 0-.183-.025-.387-.074a2.727 2.727 0 0 0-.643-.074c-.232 0-.4.086-.502.254-.102.17-.153.46-.153.87v3.773h1.872c.117 0 .175.048.175.147v.735c0 .099-.058.149-.175.149m-24.037-5.78a.158.158 0 0 1-.1.093.193.193 0 0 1-.141 0 3.322 3.322 0 0 0-1.15-.2 1.88 1.88 0 0 0-.723.133c-.214.09-.394.237-.542.442-.147.205-.259.47-.334.796a5.42 5.42 0 0 0-.114 1.21c0 .723.138 1.292.416 1.706.276.415.68.623 1.216.623.268 0 .487-.02.656-.06.17-.04.316-.08.441-.114.08-.018.134.03.162.147l.173.762c.027.107-.018.175-.134.201a3.452 3.452 0 0 1-.562.12 4.955 4.955 0 0 1-.709.054 3.17 3.17 0 0 1-1.19-.22 2.52 2.52 0 0 1-.957-.683c-.272-.308-.486-.698-.642-1.17-.156-.474-.235-1.031-.235-1.673 0-1.16.246-2.011.736-2.555.49-.545 1.205-.816 2.141-.816.267 0 .558.027.87.08.312.053.58.13.802.228.098.044.134.111.108.2l-.188.696zM133.91 544.83v5.324c.32.098.639.163.956.194.317.032.568.047.755.047.134 0 .206.049.214.147l.134.843c.009.054.009.096 0 .127s-.04.055-.093.074a.358.358 0 0 1-.134.026h-.134a2.81 2.81 0 0 1-.75-.133 6.657 6.657 0 0 1-1.07-.442l-.106.348a.407.407 0 0 1-.054.113c-.018.023-.063.034-.134.034h-.71c-.115 0-.173-.05-.173-.147v-6.555c0-.099.058-.148.174-.148h.95c.117 0 .175.049.175.148m-5.615 6.836a3.09 3.09 0 0 1-1.17-.214 2.333 2.333 0 0 1-.91-.662c-.255-.3-.451-.685-.59-1.157-.137-.474-.206-1.045-.206-1.713 0-1.187.236-2.045.71-2.575.472-.532 1.172-.796 2.1-.796.428 0 .818.071 1.17.213.352.143.656.364.91.663.254.298.45.684.589 1.157.138.473.206 1.044.206 1.712 0 1.186-.235 2.045-.709 2.576-.472.53-1.173.796-2.1.796m1.117-5.438c-.218-.406-.604-.61-1.157-.61-.26 0-.481.045-.669.135-.188.089-.341.238-.461.447-.12.21-.208.48-.261.81-.054.33-.08.736-.08 1.218 0 .758.106 1.342.321 1.752.213.41.598.615 1.15.615.268 0 .495-.044.683-.133.187-.09.34-.24.461-.449.12-.209.207-.479.26-.809.054-.33.08-.736.08-1.218 0-.766-.108-1.353-.327-1.758m-.491-8.688a.35.35 0 0 1-.134.026h-.133c-.197 0-.446-.045-.749-.133a6.739 6.739 0 0 1-1.071-.442l-.107.347a.421.421 0 0 1-.053.115c-.019.022-.063.034-.134.034h-.709c-.116 0-.174-.05-.174-.149v-6.555c0-.098.058-.147.174-.147h.95c.115 0 .174.05.174.147v5.325c.32.098.639.163.955.194.318.03.57.047.758.047.133 0 .204.05.213.147l.134.842a.318.318 0 0 1 0 .128c-.01.031-.04.055-.094.074m11.948 2.649h-1.339c-.098 0-.165-.05-.2-.148l-1.86-5.525-1.82 5.525c-.036.099-.103.148-.2.148h-1.418c-.116 0-.179-.05-.187-.148l-.777-9.258c0-.098.054-.147.161-.147h.937c.115 0 .174.05.174.147l.548 7.867 1.886-5.606c.027-.089.094-.133.2-.133h.804c.116 0 .188.044.214.133l1.94 5.633.588-7.894c0-.098.059-.147.175-.147h.963c.107 0 .16.05.16.147l-.762 9.258c-.01.099-.072.148-.187.148m13.44-3.024c-.168.16-.369.277-.6.348a2.594 2.594 0 0 1-.764.107c-.375 0-.733-.06-1.077-.18a6.135 6.135 0 0 1-.97-.436l-.107.334a.407.407 0 0 1-.06.108c-.022.027-.065.04-.127.04h-.709c-.116 0-.174-.05-.174-.148v-6.555c0-.098.058-.147.174-.147h.95c.116 0 .174.05.174.147v5.285c.196.115.428.22.695.315.268.093.531.14.79.14.33 0 .586-.09.769-.268.183-.178.275-.535.275-1.07v-4.402c0-.098.057-.147.173-.147h.95c.116 0 .175.05.175.147v4.83c0 .365-.048.676-.14.93-.095.254-.227.461-.396.622m-5.431 17.016a6.448 6.448 0 0 1-.59.127c-.23.04-.477.06-.735.06-.66 0-1.153-.2-1.478-.602-.326-.401-.489-1.026-.489-1.873v-.361h-.696c-.116 0-.174-.05-.174-.147v-.736c0-.098.058-.147.174-.147h.696v-5.672c0-.099.058-.148.174-.148h.95c.116 0 .174.049.174.148v5.672h1.525c.116 0 .174.05.174.147v.736c0 .098-.058.147-.174.147h-1.525v.682c0 .42.064.712.193.877.13.165.338.248.622.248.09 0 .186-.007.288-.02.103-.014.201-.032.295-.054a4.72 4.72 0 0 1 .248-.054c.07-.014.12-.02.146-.02.072 0 .12.044.148.134l.16.67a.194.194 0 0 1-.006.112c-.014.031-.047.056-.1.074m-1.51-16.976a1.676 1.676 0 0 1-.69.321 4.078 4.078 0 0 1-.903.094 6.12 6.12 0 0 1-.549-.027 25.596 25.596 0 0 1-.603-.06 12.508 12.508 0 0 1-.935-.14c-.108-.027-.152-.094-.134-.201l.12-.71c.01-.097.063-.146.16-.146.037 0 .117.01.242.033.125.022.271.045.441.067l.522.067c.179.022.335.033.468.033.258 0 .466-.029.622-.087a.723.723 0 0 0 .355-.26 1.03 1.03 0 0 0 .16-.422c.027-.165.04-.359.04-.582v-.401l-1.017-.054a4.645 4.645 0 0 1-1.016-.16 2.544 2.544 0 0 1-.843-.402 1.872 1.872 0 0 1-.57-.688c-.138-.282-.206-.623-.206-1.025 0-.659.17-1.15.508-1.47.34-.322.777-.482 1.311-.482.402 0 .763.065 1.084.194.32.13.61.292.87.488l.133-.402a.67.67 0 0 1 .054-.106c.018-.028.058-.04.12-.04h.67c.115 0 .173.048.173.146v4.897c0 .374-.052.685-.153.93a1.5 1.5 0 0 1-.435.595m-.683-5.137a3.238 3.238 0 0 0-.668-.361 1.985 1.985 0 0 0-.763-.174c-.285 0-.51.088-.676.267-.165.18-.247.455-.247.83 0 .714.383 1.097 1.15 1.15l1.204.08v-1.792zm-66.01-3.665l-1.596-.001a4.15 4.15 0 0 0-4.15 4.15v19.791a5.746 5.746 0 1 1-11.493 0v-19.791a4.15 4.15 0 0 0-8.3 0v19.791a5.747 5.747 0 0 1-11.492 0v-19.791a4.15 4.15 0 0 0-4.15-4.15H37.9a.32.32 0 0 1-.32-.319v-3.192a.32.32 0 0 1 .32-.32h1.596a7.98 7.98 0 0 1 7.981 7.98V552.346a1.916 1.916 0 0 0 3.83 0v-19.792a7.98 7.98 0 1 1 15.961 0l.001 19.791v.001a1.916 1.916 0 0 0 3.831 0v-19.792a7.98 7.98 0 0 1 7.98-7.981h1.597a.32.32 0 0 1 .32.32v3.192a.32.32 0 0 1-.32.32m-11.492 35.752a11.799 11.799 0 0 1-9.896-5.363 11.799 11.799 0 0 1-9.897 5.363c-6.523 0-11.811-5.288-11.811-11.812v-21.387a.32.32 0 0 1 .32-.32h1.595c1.058 0 1.916.858 1.916 1.916v19.791a7.981 7.981 0 1 0 15.961 0v-19.791a1.916 1.916 0 0 1 3.831 0v19.791a7.98 7.98 0 1 0 15.961 0v-19.791c0-1.058.858-1.916 1.916-1.916H80.676a.32.32 0 0 1 .32.32v21.387c0 6.524-5.29 11.812-11.812 11.812" fill="#231f20"/></g></svg>
