<svg viewBox="0 0 56 50" xmlns="http://www.w3.org/2000/svg"><path d="M54.78 45.008l-1.994.002a5.188 5.188 0 0 1-5.188-5.188V15.083a7.183 7.183 0 1 0-14.366 0v24.739a5.188 5.188 0 0 1-10.375 0V15.083a7.184 7.184 0 0 0-14.365 0v24.739a5.187 5.187 0 0 1-5.188 5.187H1.312a.4.4 0 0 0-.4.4v3.99a.4.4 0 0 0 .4.4h1.995a9.976 9.976 0 0 0 9.976-9.976V15.08a2.395 2.395 0 0 1 4.788 0v24.74a9.976 9.976 0 1 0 19.951 0l.001-24.74a2.395 2.395 0 0 1 4.789 0v24.74a9.975 9.975 0 0 0 9.975 9.976h1.996a.4.4 0 0 0 .4-.4v-3.99a.4.4 0 0 0-.4-.4l-.002.002zM40.419.316a14.749 14.749 0 0 0-12.37 6.704A14.749 14.749 0 0 0 15.677.316C7.523.316.913 6.926.913 15.08v26.734c0 .22.18.4.4.4h1.994a2.395 2.395 0 0 0 2.395-2.395V15.08a9.976 9.976 0 1 1 19.951 0v24.74a2.395 2.395 0 0 0 4.789 0V15.08c0-5.509 4.466-9.975 9.976-9.975 5.509 0 9.975 4.466 9.975 9.976V39.82a2.395 2.395 0 0 0 2.395 2.395h1.994a.4.4 0 0 0 .4-.4V15.08c0-8.155-6.613-14.765-14.765-14.765h.001z" fill-rule="nonzero"/></svg>
