<svg width="23" height="18" viewbox="0 0 23 18" xmlns="http://www.w3.org/2000/svg"><g fill="#000" fill-rule="nonzero"><path d="M2.236 15.168h.573c.04.546.534.98 1.143.98.608 0 1.103-.434 1.143-.98h.65c.04.546.534.98 1.143.98.608 0 1.103-.434 1.142-.98h6.885c.04.546.534.98 1.143.98s1.103-.434 1.142-.98h.651c.04.546.534.98 1.143.98.608 0 1.103-.434 1.143-.98H20.84c1.078 0 1.956-.893 1.956-1.992V6.25c0-1.098-.877-1.992-1.956-1.992h-8.45l.613-1.414.783.38a.6.6 0 0 0 .807-.29.621.621 0 0 0-.285-.822L10.454.236a.6.6 0 0 0-.807.29.621.621 0 0 0 .286.822l1.978.963-.734 1.697a.617.617 0 0 0-.05.25h-8.89C1.156 4.258.28 5.152.28 6.25v6.926c0 1.099.878 1.992 1.956 1.992zm16.36-9.677h2.244c.41 0 .746.34.746.76v2.915l-2.99-.706V5.491zm-4.02 0h2.809v2.848h-2.81V5.491zm-4.261 0h3.05v2.848h-3.05V5.491zm-4.503 0h3.293v2.848H5.812V5.491zm-4.322.76c0-.419.335-.76.746-.76h2.365V8.34h-3.11V6.251zm0 5.54h.727a.61.61 0 0 0 .605-.616.61.61 0 0 0-.605-.617H1.49v-.986h16.455l3.64.86v1.36h-.484a.61.61 0 0 0-.605.616c0 .34.27.617.605.617h.484v.151c0 .419-.335.76-.746.76H2.236a.754.754 0 0 1-.746-.76v-1.385zM22.205 16.607H.745a.61.61 0 0 0-.606.616c0 .34.27.617.605.617h21.461a.61.61 0 0 0 .605-.617.61.61 0 0 0-.605-.616z"/></g></svg>
